# xmcd
# Copyright (C) 1995-1998 Ti Kan
#
# Track frame offsets:
#       150
#       20022
#       33357
#       48985
#       66705
#       87177
#       105440
#       122882
#       141022
#       158967
#       175780
#       194592
#
# Disc length: 3602 seconds
#
# Revision: 2
# Processed by: cddbd v1.4PL0 Copyright (c) Steve Scherf et al.
# Submitted via: CD-Transfer v1.0
#
DISCID=a70e100c
DTITLE=Posh - What's Wrong With Being..?
DYEAR=2003
DGENRE=
TTITLE0=Sweet Liberty
TTITLE1=Damm Sexy
TTITLE2=Here I Am
TTITLE3=Run Away
TTITLE4=You And Me
TTITLE5=Ordinary
TTITLE6=Marguerite
TTITLE7=Hypnotize Me
TTITLE8=Weak
TTITLE9=Too Late
TTITLE10=Bad Impression
TTITLE11=Why The World Lies To Me
EXTD=
EXTT0=
EXTT1=
EXTT2=
EXTT3=
EXTT4=
EXTT5=
EXTT6=
EXTT7=
EXTT8=
EXTT9=
EXTT10=
EXTT11=
PLAYORDER=
